<svg data-v-0dd9719b="" version="1.0" xmlns="http://www.w3.org/2000/svg" xmlns:xlink="http://www.w3.org/1999/xlink" width="100%" height="100%" viewBox="0 0 340.000000 250.000000" preserveAspectRatio="xMidYMid meet" color-interpolation-filters="sRGB" style="margin: auto;"> <rect data-v-0dd9719b="" x="0" y="0" width="100%" height="100%" fill="#ffffff" fill-opacity="1" class="background"></rect> <rect data-v-0dd9719b="" x="0" y="0" width="100%" height="100%" fill="url(#watermark)" fill-opacity="1" class="watermarklayer"></rect> <g data-v-0dd9719b="" fill="#1582c7" class="icon-text-wrapper icon-svg-group iconsvg" transform="translate(48.725006103515625,95.03386306762695)"><g class="iconsvg-imagesvg" transform="translate(0,0)"><g><rect fill="#1582c7" fill-opacity="0" stroke-width="2" x="0" y="0" width="60" height="59.9322765275239" class="image-rect"></rect> <svg filter="url(#colors9731502830)" x="0" y="0" width="60" height="59.9322765275239" filtersec="colorsf6452240085" class="image-svg-svg primary" style="overflow: visible;"><svg xmlns="http://www.w3.org/2000/svg" viewBox="0.7999999999999998 0.7999999999999998 92.7 92.60001"><path d="M56 64.8l26.6-26.6 8.9 8.9-44.4 44.3L2.8 47.1l8.9-8.9 35.4 35.4 8.9-8.8m8.8 8.9L29.4 38.3 56 11.7l-8.9-8.9-35.4 35.5m70.8 0L47.1 2.8m-4.4 48.7" fill="none" stroke="#202121" stroke-width="4" stroke-miterlimit="10"></path></svg></svg> <defs><filter id="colors9731502830"><feColorMatrix type="matrix" values="0 0 0 0 0.47265625  0 0 0 0 0.7109375  0 0 0 0 0.3203125  0 0 0 1 0" class="icon-fecolormatrix"></feColorMatrix></filter> <filter id="colorsf6452240085"><feColorMatrix type="matrix" values="0 0 0 0 0.99609375  0 0 0 0 0.99609375  0 0 0 0 0.99609375  0 0 0 1 0" class="icon-fecolormatrix"></feColorMatrix></filter> <filter id="colorsb630680677"><feColorMatrix type="matrix" values="0 0 0 0 0  0 0 0 0 0  0 0 0 0 0  0 0 0 1 0" class="icon-fecolormatrix"></feColorMatrix></filter></defs></g></g> <g transform="translate(67,19.01613712310791)"><g data-gra="path-name" fill-rule="" class="tp-name iconsvg-namesvg"><g transform="scale(1)"><g><path d="M19.97-21.42L19.97 0 17.05 0 17.05-9.74 5.51-9.74 5.51 0 2.6 0 2.6-21.42 5.51-21.42 5.51-11.87 17.05-11.87 17.05-21.42 19.97-21.42ZM28.38-21.42L28.38-12.03 29.47-12.03Q30.04-12.03 30.38-12.17 30.71-12.31 31.01-12.66L31.01-12.66 38.14-20.73Q38.47-21.1 38.78-21.26 39.08-21.42 39.56-21.42L39.56-21.42 42.03-21.42 33.87-12.2Q33.55-11.85 33.28-11.61 33-11.37 32.69-11.22L32.69-11.22Q33.1-11.09 33.42-10.82 33.73-10.55 34.08-10.15L34.08-10.15 42.59 0 40.08 0Q39.8 0 39.6-0.04 39.41-0.09 39.27-0.16 39.13-0.24 39.01-0.36 38.89-0.48 38.77-0.61L38.77-0.61 31.37-9.12Q31.21-9.3 31.06-9.42 30.92-9.55 30.73-9.64 30.55-9.73 30.3-9.77 30.05-9.8 29.7-9.8L29.7-9.8 28.38-9.8 28.38 0 25.5 0 25.5-21.42 28.38-21.42ZM68.69-21.42L68.69 0 65.77 0 65.77-9.74 54.24-9.74 54.24 0 51.32 0 51.32-21.42 54.24-21.42 54.24-11.87 65.77-11.87 65.77-21.42 68.69-21.42ZM73.92-21.42L87.12-21.42 87.12-19.06 76.83-19.06 76.83-11.94 85.16-11.94 85.16-9.67 76.83-9.67 76.83-2.36 87.12-2.36 87.12 0 73.92 0 73.92-21.42ZM107.4-21.42L99.54-8.52 99.54 0 96.65 0 96.65-8.52 88.8-21.42 91.35-21.42Q91.73-21.42 91.96-21.22 92.18-21.03 92.35-20.74L92.35-20.74 97.25-12.42Q97.55-11.9 97.75-11.43 97.95-10.97 98.12-10.52L98.12-10.52Q98.28-10.98 98.47-11.45 98.67-11.91 98.97-12.42L98.97-12.42 103.85-20.74Q103.99-20.98 104.22-21.2 104.45-21.42 104.83-21.42L104.83-21.42 107.4-21.42ZM126.2-21.42L118.34-8.52 118.34 0 115.45 0 115.45-8.52 107.61-21.42 110.15-21.42Q110.53-21.42 110.76-21.22 110.98-21.03 111.15-20.74L111.15-20.74 116.05-12.42Q116.35-11.9 116.55-11.43 116.75-10.97 116.92-10.52L116.92-10.52Q117.08-10.98 117.27-11.45 117.47-11.91 117.77-12.42L117.77-12.42 122.66-20.74Q122.79-20.98 123.02-21.2 123.25-21.42 123.63-21.42L123.63-21.42 126.2-21.42ZM132.32-21.42L132.32 0 129.43 0 129.43-21.42 132.32-21.42ZM139.56-21.42L139.56-21.42Q139.95-21.42 140.13-21.32 140.32-21.22 140.56-20.92L140.56-20.92 152.96-4.78Q152.92-5.17 152.9-5.54 152.89-5.9 152.89-6.25L152.89-6.25 152.89-21.42 155.43-21.42 155.43 0 153.97 0Q153.62 0 153.39-0.12 153.16-0.24 152.93-0.52L152.93-0.52 140.54-16.65Q140.57-16.28 140.59-15.92 140.6-15.56 140.6-15.26L140.6-15.26 140.6 0 138.06 0 138.06-21.42 139.56-21.42ZM170.21-2.11L170.21-2.11Q171.08-2.11 171.8-2.19 172.53-2.27 173.17-2.44 173.81-2.6 174.38-2.83 174.95-3.06 175.52-3.36L175.52-3.36 175.52-8.09 172.2-8.09Q171.91-8.09 171.74-8.25 171.57-8.41 171.57-8.65L171.57-8.65 171.57-10.3 178.15-10.3 178.15-2.08Q177.34-1.49 176.47-1.06 175.59-0.63 174.6-0.34 173.6-0.04 172.47 0.1 171.33 0.24 170 0.24L170 0.24Q167.67 0.24 165.73-0.56 163.78-1.36 162.38-2.8 160.97-4.24 160.19-6.26 159.41-8.28 159.41-10.7L159.41-10.7Q159.41-13.15 160.18-15.17 160.94-17.19 162.37-18.63 163.8-20.07 165.82-20.86 167.85-21.66 170.36-21.66L170.36-21.66Q171.63-21.66 172.72-21.47 173.81-21.28 174.75-20.93 175.68-20.58 176.47-20.08 177.27-19.58 177.95-18.95L177.95-18.95 177.13-17.64Q176.88-17.23 176.47-17.23L176.47-17.23Q176.23-17.23 175.95-17.4L175.95-17.4Q175.58-17.61 175.11-17.9 174.65-18.2 173.98-18.48 173.32-18.76 172.42-18.95 171.51-19.14 170.27-19.14L170.27-19.14Q168.46-19.14 167-18.55 165.53-17.96 164.5-16.87 163.47-15.77 162.92-14.21 162.36-12.64 162.36-10.7L162.36-10.7Q162.36-8.67 162.94-7.08 163.52-5.48 164.56-4.38 165.61-3.27 167.04-2.69 168.48-2.11 170.21-2.11Z" transform="translate(-2.5999999046325684, 21.65999984741211)"></path></g> <!----> <!----> <!----> <!----> <!----> <!----> <!----></g></g> <!----></g></g><defs v-gra="od"></defs></svg>